REM DIRINDEX 1\2\6,1\2\7,1\2\8,1\2\9,1\3\10,1\3\11,1\4\12,1\4\13,1\4\14,1\5\15,1\5\16,1\5\17
REM DIRNAME folder01,folder02,folder03,folder04,folder05,folder06,folder07,folder08,folder09,folder10,folder11,folder12,folder13,folder14,folder15,folder16,folder17
TITLE ""
FILE "1400_2_sec01_0085_0100.mp3" MP3
  TRACK 01 AUDIO
    TITLE "0:"
    INDEX 01 00:00:00
  TRACK 02 AUDIO
    TITLE "13:cjc029_1735"
    INDEX 01 00:00:17
  TRACK 03 AUDIO
    TITLE "0:"
    INDEX 01 00:01:13
  TRACK 04 AUDIO
    TITLE "14:cjc029_1736"
    INDEX 01 00:01:21
  TRACK 05 AUDIO
    TITLE "0:"
    INDEX 01 00:05:59
  TRACK 06 AUDIO
    TITLE "13:cjc029_1737"
    INDEX 01 00:06:39
  TRACK 07 AUDIO
    TITLE "0:"
    INDEX 01 00:07:45
  TRACK 08 AUDIO
    TITLE "14:cjc029_1738"
    INDEX 01 00:07:51
  TRACK 09 AUDIO
    TITLE "0:"
    INDEX 01 00:12:42
  TRACK 10 AUDIO
    TITLE "13:cjc029_1739"
    INDEX 01 00:13:26
  TRACK 11 AUDIO
    TITLE "0:"
    INDEX 01 00:14:39
  TRACK 12 AUDIO
    TITLE "14:cjc029_1740"
    INDEX 01 00:14:45
  TRACK 13 AUDIO
    TITLE "0:"
    INDEX 01 00:17:35
  TRACK 14 AUDIO
    TITLE "13:cjc029_1741"
    INDEX 01 00:18:19
  TRACK 15 AUDIO
    TITLE "0:"
    INDEX 01 00:19:28
  TRACK 16 AUDIO
    TITLE "14:cjc029_1742"
    INDEX 01 00:19:30
  TRACK 17 AUDIO
    TITLE "0:"
    INDEX 01 00:20:45
  TRACK 18 AUDIO
    TITLE "13:cjc029_1743"
    INDEX 01 00:21:25
  TRACK 19 AUDIO
    TITLE "0:"
    INDEX 01 00:22:27
  TRACK 20 AUDIO
    TITLE "14:cjc029_1744"
    INDEX 01 00:22:34
  TRACK 21 AUDIO
    TITLE "0:"
    INDEX 01 00:27:14
  TRACK 22 AUDIO
    TITLE "13:cjc029_1745"
    INDEX 01 00:27:73
  TRACK 23 AUDIO
    TITLE "0:"
    INDEX 01 00:29:05
  TRACK 24 AUDIO
    TITLE "14:cjc029_1746"
    INDEX 01 00:29:11
  TRACK 25 AUDIO
    TITLE "0:"
    INDEX 01 00:30:40
  TRACK 26 AUDIO
    TITLE "13:cjc029_1747"
    INDEX 01 00:31:22
  TRACK 27 AUDIO
    TITLE "0:"
    INDEX 01 00:32:19
  TRACK 28 AUDIO
    TITLE "14:cjc029_1748"
    INDEX 01 00:32:23
  TRACK 29 AUDIO
    TITLE "0:"
    INDEX 01 00:34:32
  TRACK 30 AUDIO
    TITLE "13:cjc029_1749"
    INDEX 01 00:35:12
  TRACK 31 AUDIO
    TITLE "0:"
    INDEX 01 00:36:11
  TRACK 32 AUDIO
    TITLE "14:cjc029_1750"
    INDEX 01 00:36:21
  TRACK 33 AUDIO
    TITLE "0:"
    INDEX 01 00:39:74
  TRACK 34 AUDIO
    TITLE "13:cjc029_1751"
    INDEX 01 00:40:56
  TRACK 35 AUDIO
    TITLE "0:"
    INDEX 01 00:41:63
  TRACK 36 AUDIO
    TITLE "14:cjc029_1752"
    INDEX 01 00:41:67
  TRACK 37 AUDIO
    TITLE "0:"
    INDEX 01 00:43:23
  TRACK 38 AUDIO
    TITLE "13:cjc029_1753"
    INDEX 01 00:44:09
  TRACK 39 AUDIO
    TITLE "0:"
    INDEX 01 00:45:24
  TRACK 40 AUDIO
    TITLE "14:cjc029_1754"
    INDEX 01 00:45:32
  TRACK 41 AUDIO
    TITLE "0:"
    INDEX 01 00:49:33
  TRACK 42 AUDIO
    TITLE "12:cjc029_1755"
    INDEX 01 00:51:09
  TRACK 43 AUDIO
    TITLE "0:"
    INDEX 01 00:53:25
  TRACK 44 AUDIO
    TITLE "13:cjc029_1756"
    INDEX 01 00:54:29
  TRACK 45 AUDIO
    TITLE "0:"
    INDEX 01 00:55:36
  TRACK 46 AUDIO
    TITLE "14:cjc029_1757"
    INDEX 01 00:55:44
  TRACK 47 AUDIO
    TITLE "0:"
    INDEX 01 00:58:24
  TRACK 48 AUDIO
    TITLE "13:cjc029_1758"
    INDEX 01 00:59:06
  TRACK 49 AUDIO
    TITLE "0:"
    INDEX 01 01:00:13
  TRACK 50 AUDIO
    TITLE "14:cjc029_1759"
    INDEX 01 01:00:21
  TRACK 51 AUDIO
    TITLE "0:"
    INDEX 01 01:02:67
  TRACK 52 AUDIO
    TITLE "13:cjc029_1760"
    INDEX 01 01:03:49
  TRACK 53 AUDIO
    TITLE "0:"
    INDEX 01 01:04:50
  TRACK 54 AUDIO
    TITLE "14:cjc029_1761"
    INDEX 01 01:04:54
  TRACK 55 AUDIO
    TITLE "0:"
    INDEX 01 01:07:70
  TRACK 56 AUDIO
    TITLE "13:cjc029_1762"
    INDEX 01 01:08:52
  TRACK 57 AUDIO
    TITLE "0:"
    INDEX 01 01:09:65
  TRACK 58 AUDIO
    TITLE "14:cjc029_1763"
    INDEX 01 01:09:69
  TRACK 59 AUDIO
    TITLE "0:"
    INDEX 01 01:13:04
  TRACK 60 AUDIO
    TITLE "13:cjc029_1764"
    INDEX 01 01:13:59
  TRACK 61 AUDIO
    TITLE "0:"
    INDEX 01 01:14:70
  TRACK 62 AUDIO
    TITLE "14:cjc029_1765"
    INDEX 01 01:14:74
  TRACK 63 AUDIO
    TITLE "0:"
    INDEX 01 01:16:42
  TRACK 64 AUDIO
    TITLE "13:cjc029_1766"
    INDEX 01 01:17:24
  TRACK 65 AUDIO
    TITLE "0:"
    INDEX 01 01:18:29
  TRACK 66 AUDIO
    TITLE "14:cjc029_1767"
    INDEX 01 01:18:33
  TRACK 67 AUDIO
    TITLE "0:"
    INDEX 01 01:20:26
